<?xml version="1.0" encoding="utf-8"?><svg viewBox="0 0 65 64" xmlns="http://www.w3.org/2000/svg" xmlns:xlink="http://www.w3.org/1999/xlink"><style>:root>svg{display:none}:root>svg:target{display:block}</style><svg viewBox="0 0 46.02 46.02" id="arrow" xmlns="http://www.w3.org/2000/svg"><path d="M14.757 46.02a5.688 5.688 0 01-3.929-1.569 5.705 5.705 0 01-.204-8.063L23.382 22.97 10.637 9.645a5.703 5.703 0 018.242-7.884l16.505 17.253a5.707 5.707 0 01.013 7.872L18.893 44.247a5.699 5.699 0 01-4.136 1.773z"/></svg><svg fill="none" viewBox="0 0 56 64" id="field" xmlns="http://www.w3.org/2000/svg"><path d="M55.696 57.604L53.29 41.078a.938.938 0 00-1.856.27l1.702 11.683a6.106 6.106 0 00-4.398 4.953h-3.499l-1.66-11.621a.937.937 0 00-.928-.805h-5.653c-.594-3.5-4.465-6.212-9.139-6.212-4.674 0-8.545 2.712-9.139 6.212h-5.653a.938.938 0 00-.928.805l-1.66 11.62H6.98a6.107 6.107 0 00-4.398-4.952l3.682-25.27h14.53c.529 2.928 3.495 5.177 7.065 5.177 3.57 0 6.537-2.25 7.066-5.178h14.53l1.434 9.846a.939.939 0 001.855-.27L47.551 1.694A1.983 1.983 0 0045.598 0h-35.48c-.975 0-1.814.728-1.952 1.691L.02 57.606c-.012.081-.017.162-.018.242L0 57.886v3.106A3.012 3.012 0 003.008 64H7.15a.938.938 0 000-1.875H3.008a1.135 1.135 0 01-1.133-1.133v-1.139c.033.002.065.005.098.005h51.771c.032 0 .065-.003.098-.005v1.139c0 .625-.509 1.133-1.134 1.133H10.9a.938.938 0 000 1.875h41.808a3.012 3.012 0 003.009-3.008v-3.106l-.002-.038a1.971 1.971 0 00-.019-.244zM27.858 41.22c3.605 0 6.61 1.875 7.228 4.337H20.63c.618-2.462 3.622-4.337 7.227-4.337zM13.88 47.433h27.957l1.507 10.55h-2.29l-1.068-7.478a.937.937 0 00-.928-.805h-22.4a.938.938 0 00-.927.805l-1.069 7.478h-2.29l1.508-10.55zm25.28 10.55H16.556l.916-6.408h20.773l.915 6.408zm-11.302-26.92c-2.508 0-4.61-1.415-5.143-3.302h10.287c-.533 1.887-2.636 3.302-5.144 3.302zm-5.143-5.177c.532-1.888 2.636-3.303 5.143-3.303 2.508 0 4.611 1.415 5.144 3.303H22.715zm12.21 0c-.53-2.929-3.497-5.178-7.067-5.178-3.57 0-6.536 2.25-7.066 5.178H6.537L9.432 6.01a5.087 5.087 0 004.78-4.136h4.282l-1.03 7.213a.938.938 0 00.928 1.07h3.458c.531 2.354 3.022 4.142 6.008 4.142s5.478-1.788 6.009-4.142h3.458a.937.937 0 00.928-1.07l-1.03-7.213h4.282a5.087 5.087 0 004.78 4.136l2.896 19.875H34.924zM22.677 1.875l-.439 3.071a.938.938 0 00.928 1.07h9.383a.938.938 0 00.928-1.07l-.44-3.071h2.29l.916 6.408H19.473l.915-6.408h2.29zm8.467 0l.324 2.266h-7.221l.324-2.266h6.573zm.768 8.283c-.532 1.31-2.148 2.267-4.055 2.267-1.906 0-3.522-.956-4.054-2.267h8.109zm13.782-8.196l.312 2.143a3.214 3.214 0 01-2.575-2.23h2.166c.048 0 .09.036.097.087zM10.12 1.875h2.166a3.214 3.214 0 01-2.576 2.23l.313-2.146a.099.099 0 01.097-.084zM1.899 57.95a.093.093 0 01-.023-.076l.432-2.967a4.234 4.234 0 012.764 3.076H1.973a.093.093 0 01-.074-.033zm51.919 0a.094.094 0 01-.074.033h-3.1a4.235 4.235 0 012.765-3.075l.432 2.964a.094.094 0 01-.023.078z" fill="#008253"/></svg><svg fill="none" viewBox="0 0 64 64" id="infrastructure" xmlns="http://www.w3.org/2000/svg"><path d="M45.32 21.57l-.684-2.254a4.896 4.896 0 00-9.272 0l-.685 2.254a12.66 12.66 0 00-.353 5.866 5.518 5.518 0 002.842 3.846L36.4 48.426a3.378 3.378 0 00.853 2.626 3.726 3.726 0 005.5 0c.631-.693.941-1.62.853-2.554l-.77-17.218a5.516 5.516 0 002.836-3.844 12.66 12.66 0 00-.353-5.866zm-1.748 5.495a3.382 3.382 0 01-2.213 2.548 1.066 1.066 0 00-.69 1.047l.81 18.006c.038.354-.079.706-.32.967a1.648 1.648 0 01-2.319 0 1.28 1.28 0 01-.313-1.037l.804-17.936a1.066 1.066 0 00-.69-1.047 3.382 3.382 0 01-2.213-2.548 10.518 10.518 0 01.293-4.87l.685-2.255a2.766 2.766 0 015.188 0l.685 2.255c.477 1.578.578 3.246.293 4.87zM28.8 16c-.59 0-1.067.478-1.067 1.067v9.158l-2.887 2.887a1.067 1.067 0 00-.313.808l.934 18.667c.022.402-.124.796-.404 1.087a1.502 1.502 0 01-2.124.009l-.009-.01a1.452 1.452 0 01-.403-1.086l.94-18.667a1.067 1.067 0 00-.312-.808l-2.888-2.887v-9.158a1.067 1.067 0 00-2.134 0v9.6c0 .283.113.554.313.754l2.865 2.866-.91 18.196a3.603 3.603 0 107.198 0l-.91-18.196 2.865-2.866c.2-.2.313-.471.313-.754v-9.6c0-.59-.478-1.067-1.067-1.067z" fill="#008253"/><path d="M22.4 16c-.589 0-1.066.478-1.066 1.067V25.6a1.067 1.067 0 002.133 0v-8.533c0-.59-.478-1.067-1.067-1.067zM25.6 16c-.59 0-1.067.478-1.067 1.067V25.6a1.067 1.067 0 002.133 0v-8.533c0-.59-.477-1.067-1.066-1.067z" fill="#008253"/><path d="M32 0C14.327 0 0 14.327 0 32c0 17.673 14.327 32 32 32 17.673 0 32-14.327 32-32C63.98 14.335 49.665.02 32 0zm0 61.867C15.505 61.867 2.133 48.495 2.133 32S15.505 2.133 32 2.133 61.867 15.505 61.867 32C61.847 48.487 48.487 61.848 32 61.867z" fill="#008253"/><path d="M35.462 52.023a1.067 1.067 0 00-1.206-.953l.004-.001a19.594 19.594 0 01-4.52 0 1.067 1.067 0 10-.249 2.12 21.61 21.61 0 005.014 0 1.067 1.067 0 00.957-1.166zM48.32 18.255a1.067 1.067 0 00-1.503-.131l-.004.003a1.067 1.067 0 00-.128 1.503c6.431 7.635 5.94 18.924-1.132 25.97a1.067 1.067 0 001.506 1.512c7.858-7.829 8.406-20.373 1.261-28.857zM24.852 14.1h-.002-.003.005zM37.031 11.263c-4.168-1-8.54-.73-12.555.771a1.067 1.067 0 00.747 1.996 19.378 19.378 0 0111.307-.694 1.067 1.067 0 10.501-2.073zM18.399 45.547A19.076 19.076 0 0112.799 32a19.058 19.058 0 013.671-11.294 1.067 1.067 0 10-1.705-1.282l-.019.026c-6.167 8.478-5.26 20.18 2.141 27.607a1.069 1.069 0 001.512-1.51z" fill="#008253"/></svg><svg fill="none" viewBox="0 0 64 64" id="kremlin" xmlns="http://www.w3.org/2000/svg"><path d="M61.188 58.375H49.062v-3.263l.723-2.888a.937.937 0 00-.722-1.145v-7.726c0-.237-.064-.468-.184-.669l-1.58-2.642a1.217 1.217 0 00-1.049-.605c-.431 0-.824.226-1.05.605l-1.579 2.642a1.275 1.275 0 00-.065.129h-1.618v-21.46c0-.237-.064-.468-.184-.669l-1.58-2.642a1.217 1.217 0 00-1.049-.605c-.431 0-.824.226-1.05.604l-.865 1.45-.96-4.184a.938.938 0 00-1.827.42l1.166 5.085h-.895a1.263 1.263 0 00-.065-.128l-1.58-2.642A1.217 1.217 0 0032 17.437c-.431 0-.824.226-1.05.604l-1.578 2.643a1.296 1.296 0 00-.066.128h-.895L31.458 7.52 32 7.235l.542.285.996 4.346a.938.938 0 001.828-.419l-.887-3.87c.455-.338.678-.893.582-1.454l-.17-.99.72-.7c.41-.4.555-.989.378-1.535A1.488 1.488 0 0034.78 1.88l-.993-.144-.444-.9A1.49 1.49 0 0032 0c-.574 0-1.089.32-1.343.835l-.444.9-.993.144a1.488 1.488 0 00-1.208 1.02 1.488 1.488 0 00.378 1.534l.719.7-.17.99c-.096.56.127 1.115.582 1.454l-2.73 11.913-.866-1.448a1.217 1.217 0 00-1.05-.605c-.431 0-.824.226-1.05.604l-1.578 2.643c-.12.2-.184.432-.184.67v6.591a.938.938 0 001.875 0v-1.508h16.125v13.448a1.208 1.208 0 00-.938-.447c-.431 0-.824.225-1.05.603l-1.578 2.643a1.296 1.296 0 00-.066.129h-1.737a1.264 1.264 0 00-.065-.129l-1.579-2.642a1.217 1.217 0 00-1.05-.605c-.431 0-.824.226-1.05.605l-1.578 2.642a1.296 1.296 0 00-.066.129H27.57a1.264 1.264 0 00-.066-.129l-1.579-2.642a1.208 1.208 0 00-1.987-.157V32a.937.937 0 10-1.875 0v10.813h-1.618a1.264 1.264 0 00-.066-.129L18.8 40.042a1.217 1.217 0 00-1.05-.605c-.431 0-.824.226-1.05.605l-1.578 2.642c-.12.2-.184.432-.184.67v7.725a.937.937 0 00-.722 1.145l.722 2.888v3.263H2.813A2.816 2.816 0 000 61.188 2.816 2.816 0 002.813 64h58.374A2.816 2.816 0 0064 61.187a2.816 2.816 0 00-2.813-2.812zm-44.376-9.938h30.375v2.622H16.814v-2.621zm28.5-4.928l.938-1.569.938 1.57v3.053h-1.876v-3.054zm-1.874 3.053h-1.5v-1.874h1.5v1.874zm-12.759-43c.488-.071.91-.377 1.128-.82L32 2.352l.193.392c.218.442.64.748 1.128.819l.432.063-.313.305c-.353.344-.514.84-.43 1.325l.074.431-.387-.203a1.498 1.498 0 00-1.394 0l-.386.203.074-.43a1.498 1.498 0 00-.431-1.326l-.313-.305.432-.063zm-6.741 17.947l.937-1.569.938 1.57v3.052h-1.875V21.51zm3.75 1.178h1.5v1.875h-1.5v-1.875zm3.375-1.178L32 19.94l.938 1.57v3.052h-1.876V21.51zm3.75 1.178h1.5v1.875h-1.5v-1.875zm3.374 1.875V21.51l.938-1.569.938 1.57v3.052h-1.876zm0 18.947l.938-1.569.938 1.57v3.053h-1.876v-3.054zm-1.874 3.053h-1.5v-1.874h1.5v1.874zm-5.25-3.053L32 41.94l.938 1.57v3.053h-1.876v-3.054zm-1.875 3.053h-1.5v-1.874h1.5v1.874zm-4.313-4.622l.938 1.57v3.053h-1.875v-3.054l.937-1.569zm-2.813 4.623h-1.5v-1.876h1.5v1.876zm-5.25-3.054l.938-1.569.938 1.57v3.053h-1.875v-3.054zm0 12.425h23.236a.937.937 0 100-1.875H16.607l-.281-1.125h31.348l-.281 1.125h-3.32a.937.937 0 100 1.875h3.114v2.441H16.814v-2.441zm44.376 6.191H2.812a.938.938 0 010-1.875h58.376a.938.938 0 010 1.875z" fill="#008253"/></svg><svg fill="none" viewBox="0 0 56 64" id="tribune" xmlns="http://www.w3.org/2000/svg"><path d="M55.696 57.604L53.29 41.078a.938.938 0 00-1.856.27l1.702 11.683a6.106 6.106 0 00-4.398 4.953h-3.499l-1.66-11.621a.937.937 0 00-.928-.805h-5.653c-.594-3.5-4.465-6.212-9.139-6.212-4.674 0-8.545 2.712-9.139 6.212h-5.653a.938.938 0 00-.928.805l-1.66 11.62H6.98a6.107 6.107 0 00-4.398-4.952l3.682-25.27h14.53c.529 2.928 3.495 5.177 7.065 5.177 3.57 0 6.537-2.25 7.066-5.178h14.53l1.434 9.846a.939.939 0 001.855-.27L47.551 1.694A1.983 1.983 0 0045.598 0h-35.48c-.975 0-1.814.728-1.952 1.691L.02 57.606c-.012.081-.017.162-.018.242L0 57.886v3.106A3.012 3.012 0 003.008 64H7.15a.938.938 0 000-1.875H3.008a1.135 1.135 0 01-1.133-1.133v-1.139c.033.002.065.005.098.005h51.771c.032 0 .065-.003.098-.005v1.139c0 .625-.509 1.133-1.134 1.133H10.9a.938.938 0 000 1.875h41.808a3.012 3.012 0 003.009-3.008v-3.106l-.002-.038a1.971 1.971 0 00-.019-.244zM27.858 41.22c3.605 0 6.61 1.875 7.228 4.337H20.63c.618-2.462 3.622-4.337 7.227-4.337zM13.88 47.433h27.957l1.507 10.55h-2.29l-1.068-7.478a.937.937 0 00-.928-.805h-22.4a.938.938 0 00-.927.805l-1.069 7.478h-2.29l1.508-10.55zm25.28 10.55H16.556l.916-6.408h20.773l.915 6.408zm-11.302-26.92c-2.508 0-4.61-1.415-5.143-3.302h10.287c-.533 1.887-2.636 3.302-5.144 3.302zm-5.143-5.177c.532-1.888 2.636-3.303 5.143-3.303 2.508 0 4.611 1.415 5.144 3.303H22.715zm12.21 0c-.53-2.929-3.497-5.178-7.067-5.178-3.57 0-6.536 2.25-7.066 5.178H6.537L9.432 6.01a5.087 5.087 0 004.78-4.136h4.282l-1.03 7.213a.938.938 0 00.928 1.07h3.458c.531 2.354 3.022 4.142 6.008 4.142s5.478-1.788 6.009-4.142h3.458a.937.937 0 00.928-1.07l-1.03-7.213h4.282a5.087 5.087 0 004.78 4.136l2.896 19.875H34.924zM22.677 1.875l-.439 3.071a.938.938 0 00.928 1.07h9.383a.938.938 0 00.928-1.07l-.44-3.071h2.29l.916 6.408H19.473l.915-6.408h2.29zm8.467 0l.324 2.266h-7.221l.324-2.266h6.573zm.768 8.283c-.532 1.31-2.148 2.267-4.055 2.267-1.906 0-3.522-.956-4.054-2.267h8.109zm13.782-8.196l.312 2.143a3.214 3.214 0 01-2.575-2.23h2.166c.048 0 .09.036.097.087zM10.12 1.875h2.166a3.214 3.214 0 01-2.576 2.23l.313-2.146a.099.099 0 01.097-.084zM1.899 57.95a.093.093 0 01-.023-.076l.432-2.967a4.234 4.234 0 012.764 3.076H1.973a.093.093 0 01-.074-.033zm51.919 0a.094.094 0 01-.074.033h-3.1a4.235 4.235 0 012.765-3.075l.432 2.964a.094.094 0 01-.023.078z" fill="#008253"/></svg><svg viewBox="0 0 65 64" id="zoom" xmlns="http://www.w3.org/2000/svg"><path d="M64.438 60.563L46.75 42.75c4.042-4.833 6.063-10.396 6.063-16.688 0-3.541-.688-6.916-2.063-10.125-1.375-3.208-3.219-5.979-5.531-8.312-2.313-2.333-5.073-4.188-8.282-5.563C33.73.688 30.355 0 26.813 0 22.104 0 17.75 1.156 13.75 3.469c-4 2.312-7.156 5.469-9.469 9.469-2.312 4-3.468 8.364-3.468 13.093 0 4.73 1.156 9.094 3.468 13.094 2.313 4 5.469 7.156 9.469 9.469 4 2.312 8.354 3.468 13.063 3.468 6.5 0 12.208-2.145 17.125-6.437l17.624 17.75c.167.167.344.302.532.406.187.104.385.167.593.188.209.02.417.02.626 0 .208-.021.406-.084.593-.188.188-.104.365-.24.532-.406.374-.375.562-.844.562-1.406 0-.563-.188-1.032-.563-1.407zM26.812 48c-4 0-7.687-.99-11.062-2.969-3.375-1.979-6.042-4.656-8-8.031-1.958-3.375-2.938-7.042-2.938-11s.98-7.625 2.938-11c1.958-3.375 4.625-6.052 8-8.031C19.125 4.989 22.802 4 26.781 4c3.98 0 7.657.99 11.032 2.969A22.154 22.154 0 0145.843 15c1.98 3.375 2.97 7.042 2.97 11 0 5.875-2.042 10.938-6.126 15.188-4.041 4.208-8.958 6.479-14.75 6.812h-1.125zm10-24h-8v-8c0-.542-.197-1.01-.593-1.406A1.958 1.958 0 0026.78 14c-.562 0-1.031.198-1.406.594A1.976 1.976 0 0024.812 16v8h-8c-.583 0-1.062.198-1.437.594A1.976 1.976 0 0014.812 26c0 .542.188 1.01.563 1.406.375.396.854.594 1.438.594h8v8c0 .542.187 1.01.562 1.406.375.396.844.594 1.406.594.563 0 1.042-.198 1.438-.594.396-.396.593-.864.593-1.406v-8h8c.542 0 1.01-.198 1.407-.594.396-.396.593-.864.593-1.406 0-.542-.197-1.01-.593-1.406A1.922 1.922 0 0036.812 24z"/></svg></svg>