<svg width="64" height="64" viewBox="0 0 64 64" fill="none" xmlns="http://www.w3.org/2000/svg">
<path d="M45.3204 21.5698L44.6356 19.3159C43.7657 16.7556 40.985 15.3854 38.4248 16.2553C36.9845 16.7446 35.8534 17.8756 35.3641 19.3159L34.6793 21.5698C34.103 23.4706 33.9821 25.4803 34.3262 27.4364C34.6401 29.0834 35.6857 30.4983 37.1678 31.2818L36.4009 48.4263C36.2982 49.3833 36.6086 50.3386 37.2542 51.0524C38.6426 52.5711 40.9994 52.6767 42.5181 51.2883C42.6002 51.2132 42.6789 51.1346 42.754 51.0524C43.3852 50.3588 43.695 49.4315 43.6073 48.4978L42.8361 31.2796C44.3162 30.4958 45.3601 29.0818 45.6734 27.4364C46.0176 25.4803 45.8966 23.4706 45.3204 21.5698ZM43.5721 27.0653C43.3412 28.2485 42.498 29.2192 41.3588 29.6135C40.9264 29.776 40.6478 30.1984 40.6686 30.6599L41.4793 48.6663C41.5166 49.0195 41.4001 49.3716 41.1593 49.6327C40.517 50.2686 39.4826 50.2686 38.8404 49.6327C38.5876 49.3506 38.4728 48.9708 38.5268 48.5959L39.331 30.6599C39.3518 30.1984 39.0733 29.776 38.6409 29.6135C37.5017 29.2192 36.6585 28.2485 36.4276 27.0653C36.1422 25.4412 36.2428 23.7729 36.7209 22.1949L37.4057 19.9399C37.9356 18.5073 39.5265 17.7754 40.9593 18.3053C41.7168 18.5854 42.3138 19.1826 42.594 19.9399L43.2788 22.1949C43.7564 23.773 43.8569 25.4412 43.5721 27.0653Z" fill="#008253"/>
<path d="M28.8 16C28.2109 16 27.7333 16.4776 27.7333 17.0667V26.2251L24.8458 29.1125C24.6322 29.3253 24.5186 29.6188 24.5333 29.92L25.4666 48.5867C25.4889 48.9892 25.3428 49.3829 25.0634 49.6736C24.4796 50.2627 23.5286 50.2669 22.9394 49.6829C22.9362 49.6799 22.9332 49.6767 22.9301 49.6736C22.6506 49.3829 22.5046 48.9892 22.5269 48.5867L23.4666 29.92C23.4816 29.6189 23.3684 29.3256 23.1552 29.1125L20.2666 26.2251V17.0667C20.2666 16.4776 19.789 16 19.2 16C18.6109 16 18.1333 16.4776 18.1333 17.0667V26.6667C18.1333 26.9496 18.2458 27.2208 18.4458 27.4208L21.3109 30.2869L20.401 48.4832C20.3042 50.4708 21.837 52.1607 23.8246 52.2575C25.8122 52.3543 27.5021 50.8215 27.5989 48.8339C27.6046 48.7171 27.6046 48.6001 27.5989 48.4833L26.689 30.2871L29.5541 27.4209C29.7541 27.2209 29.8666 26.9497 29.8666 26.6668V17.0668C29.8666 16.4776 29.389 16 28.8 16Z" fill="#008253"/>
<path d="M22.4002 16C21.8111 16 21.3335 16.4776 21.3335 17.0667V25.6C21.3335 26.1891 21.8111 26.6667 22.4002 26.6667C22.9892 26.6667 23.4668 26.1891 23.4668 25.6V17.0667C23.4668 16.4776 22.9892 16 22.4002 16Z" fill="#008253"/>
<path d="M25.5999 16C25.0108 16 24.5332 16.4776 24.5332 17.0667V25.6C24.5332 26.1891 25.0108 26.6667 25.5999 26.6667C26.1889 26.6667 26.6665 26.1891 26.6665 25.6V17.0667C26.6665 16.4776 26.1889 16 25.5999 16Z" fill="#008253"/>
<path d="M32 0C14.3269 0 0 14.3269 0 32C0 49.6731 14.3269 64 32 64C49.6731 64 64 49.6731 64 32C63.98 14.3352 49.6648 0.02 32 0ZM32 61.8667C15.5051 61.8667 2.13333 48.4949 2.13333 32C2.13333 15.5051 15.5051 2.13333 32 2.13333C48.4949 2.13333 61.8667 15.5051 61.8667 32C61.8479 48.4871 48.4871 61.8479 32 61.8667Z" fill="#008253"/>
<path d="M35.4625 52.0232C35.4053 51.4369 34.8836 51.008 34.2972 51.0652C34.2834 51.0665 34.2697 51.0681 34.256 51.07L34.2602 51.0689C32.7585 51.2433 31.2414 51.2433 29.7397 51.0689C29.1544 51.0002 28.6244 51.419 28.5557 52.0044C28.487 52.5897 28.9058 53.1197 29.4912 53.1884C31.1566 53.3829 32.839 53.3829 34.5045 53.1884C35.0908 53.1313 35.5197 52.6096 35.4625 52.0232Z" fill="#008253"/>
<path d="M48.32 18.2552C47.9414 17.8039 47.2686 17.7448 46.8173 18.1235C46.8158 18.1247 46.8144 18.126 46.8128 18.1272C46.3625 18.507 46.3052 19.1798 46.6848 19.6302C53.1161 27.2648 52.6241 38.554 45.553 45.6003C45.1357 46.0162 45.1345 46.6918 45.5504 47.1091C45.9662 47.5264 46.6418 47.5276 47.0592 47.1118C54.9174 39.2834 55.4654 26.7391 48.32 18.2552Z" fill="#008253"/>
<path d="M24.8523 14.0993C24.8516 14.0993 24.8509 14.0991 24.8503 14.0991C24.8492 14.0991 24.8481 14.0993 24.8469 14.0993H24.8523Z" fill="#008253"/>
<path d="M37.0314 11.2629C32.8627 10.2638 28.4907 10.5323 24.4757 12.0341C23.9242 12.2414 23.6454 12.8566 23.8527 13.4079C24.009 13.8235 24.4063 14.0986 24.8502 14.099C24.9778 14.0983 25.1042 14.075 25.2234 14.0298C28.8391 12.6777 32.7762 12.4362 36.5301 13.3365C37.1027 13.4749 37.6791 13.123 37.8175 12.5503C37.9559 11.9777 37.6041 11.4013 37.0314 11.2629Z" fill="#008253"/>
<path d="M18.3988 45.5468C14.8029 41.957 12.7876 37.0812 12.7999 32.0001C12.7893 27.9406 14.0752 23.9838 16.4703 20.7062C16.8243 20.2353 16.7295 19.5666 16.2585 19.2126C15.7876 18.8586 15.1189 18.9534 14.7649 19.4244C14.7587 19.4328 14.7525 19.4412 14.7465 19.4497C8.57948 27.9281 9.48694 39.6309 16.8873 47.0572C17.3044 47.4745 17.9809 47.4748 18.3983 47.0577C18.8156 46.6406 18.8159 45.9641 18.3988 45.5468Z" fill="#008253"/>
</svg>
