<svg width="64" height="64" viewBox="0 0 64 64" fill="none" xmlns="http://www.w3.org/2000/svg">
<path d="M61.1875 58.375H49.0625V55.1118L49.7845 52.2236C49.8545 51.9436 49.7916 51.6469 49.6139 51.4193C49.4754 51.2419 49.279 51.123 49.0625 51.0788V43.3532C49.0625 43.1164 48.9989 42.8849 48.8789 42.6844L47.2999 40.0418C47.0739 39.6634 46.6815 39.4375 46.25 39.4375C45.8185 39.4375 45.426 39.6634 45.2002 40.0415L43.6215 42.6838C43.5967 42.7253 43.5759 42.7686 43.556 42.8125H41.9375V21.3533C41.9375 21.1164 41.8739 20.8849 41.7539 20.6844L40.1749 18.0417C39.9489 17.6634 39.5565 17.4375 39.125 17.4375C38.6935 17.4375 38.301 17.6634 38.0752 18.0415L37.2096 19.4902L36.2508 15.3075C36.135 14.8029 35.6322 14.4879 35.1275 14.6031C34.6229 14.7189 34.3074 15.2217 34.4231 15.7264L35.589 20.8125H34.6941C34.6743 20.7689 34.6536 20.7256 34.6289 20.6844L33.0499 18.0417C32.8239 17.6634 32.4315 17.4375 32 17.4375C31.5685 17.4375 31.176 17.6634 30.9503 18.0415L29.3715 20.6838C29.3468 20.7253 29.3259 20.7686 29.306 20.8125H28.4111L31.4583 7.51975L32.0001 7.23475L32.542 7.51963L33.5384 11.8661C33.638 12.3004 34.0241 12.5944 34.4514 12.5944C34.5207 12.5944 34.5913 12.5866 34.6618 12.5705C35.1664 12.4548 35.4819 11.9519 35.3661 11.4473L34.479 7.57713C34.934 7.23863 35.1571 6.6835 35.0611 6.123L34.8915 5.13375L35.6101 4.43325C36.0213 4.03237 36.1664 3.44425 35.9889 2.89812C35.8115 2.35212 35.3484 1.96162 34.7801 1.879L33.7873 1.73475L33.3433 0.834875C33.0889 0.32 32.5742 0 32 0C31.4258 0 30.9111 0.32 30.6572 0.83475L30.2131 1.73475L29.2201 1.879C28.652 1.96162 28.1889 2.35212 28.0115 2.89812C27.834 3.44425 27.9791 4.03237 28.3902 4.43325L29.1089 5.13375L28.9391 6.12325C28.8433 6.68337 29.0664 7.2385 29.5214 7.57713L26.7905 19.4902L25.925 18.0417C25.699 17.6634 25.3066 17.4375 24.8751 17.4375C24.4436 17.4375 24.0511 17.6634 23.8254 18.0415L22.2466 20.6838C22.1263 20.8849 22.0626 21.1164 22.0626 21.3531V27.9454C22.0626 28.4631 22.4823 28.8829 23.0001 28.8829C23.518 28.8829 23.9376 28.4631 23.9376 27.9454V26.4375H40.0626V39.8845C39.8305 39.6024 39.4925 39.4375 39.1251 39.4375C38.6936 39.4375 38.3011 39.6634 38.0754 40.0415L36.4966 42.6838C36.4719 42.7253 36.451 42.7686 36.4311 42.8125H34.6944C34.6745 42.7689 34.6539 42.7256 34.6291 42.6844L33.0501 40.0418C32.8241 39.6634 32.4318 39.4375 32.0003 39.4375C31.5688 39.4375 31.1763 39.6634 30.9505 40.0415L29.3717 42.6838C29.347 42.7253 29.3261 42.7686 29.3062 42.8125H27.5695C27.5496 42.7689 27.529 42.7256 27.5042 42.6844L25.9252 40.0418C25.6992 39.6634 25.3069 39.4375 24.8754 39.4375C24.508 39.4375 24.1699 39.6025 23.9379 39.8845V32C23.9379 31.4823 23.5183 31.0625 23.0004 31.0625C22.4825 31.0625 22.0629 31.4823 22.0629 32V42.8125H20.4445C20.4246 42.7689 20.404 42.7256 20.3792 42.6844L18.8002 40.0418C18.5742 39.6634 18.1819 39.4375 17.7504 39.4375C17.3189 39.4375 16.9264 39.6634 16.7006 40.0415L15.1219 42.6838C15.0015 42.8849 14.9379 43.1164 14.9379 43.3531V51.0786C14.7214 51.1229 14.525 51.2417 14.3865 51.4191C14.2088 51.6466 14.1459 51.9434 14.2159 52.2235L14.9379 55.1116V58.375H2.81288C1.26175 58.375 0 59.6366 0 61.1875C0 62.7384 1.26175 64 2.8125 64H61.1875C62.7383 64 64 62.7384 64 61.1875C64 59.6366 62.7383 58.375 61.1875 58.375ZM16.8125 48.4375H47.1875V51.0588H16.8125V48.4375ZM45.3125 43.5091L46.25 41.9401L47.1875 43.5091V46.5625H45.3125V43.5091ZM43.4375 46.5625H41.9375V44.6875H43.4375V46.5625ZM30.6793 3.56175C31.167 3.49088 31.5885 3.1845 31.8067 2.7425L32 2.35075L32.1934 2.7425C32.4115 3.18463 32.833 3.49088 33.3209 3.56175L33.7534 3.62462L33.4403 3.92987C33.0874 4.27387 32.9264 4.76937 33.0098 5.25537L33.0836 5.68612L32.6968 5.48275C32.2606 5.2535 31.7397 5.25362 31.3031 5.48287L30.9166 5.68612L30.9906 5.25525C31.0739 4.7695 30.9129 4.274 30.56 3.92987L30.2469 3.62475L30.6793 3.56175ZM23.9375 21.5091L24.875 19.9401L25.8125 21.5091V24.5625H23.9375V21.5091ZM27.6875 22.6875H29.1875V24.5625H27.6875V22.6875ZM31.0625 21.5091L32 19.9401L32.9375 21.5091V24.5625H31.0625V21.5091ZM34.8125 22.6875H36.3125V24.5625H34.8125V22.6875ZM38.1875 24.5625V21.5091L39.125 19.9401L40.0625 21.5091V24.5625H38.1875ZM38.1875 43.5091L39.125 41.9401L40.0625 43.5091V46.5625H38.1875V43.5091ZM36.3125 46.5625H34.8125V44.6875H36.3125V46.5625ZM31.0625 43.5091L32 41.9401L32.9375 43.5091V46.5625H31.0625V43.5091ZM29.1875 46.5625H27.6875V44.6875H29.1875V46.5625ZM24.875 41.9401L25.8125 43.5091V46.5625H23.9375V43.5091L24.875 41.9401ZM22.0625 46.5625H20.5625V44.6875H22.0625V46.5625ZM16.8125 43.5091L17.75 41.9401L18.6875 43.5091V46.5625H16.8125V43.5091ZM16.8125 55.9338H40.0481C40.566 55.9338 40.9856 55.514 40.9856 54.9963C40.9856 54.4785 40.566 54.0588 40.0481 54.0588H16.6069L16.3256 52.9338H47.6743L47.393 54.0588H44.0737C43.5559 54.0588 43.1362 54.4785 43.1362 54.9963C43.1362 55.514 43.5559 55.9338 44.0737 55.9338H47.1875V58.375H16.8125V55.9338ZM61.1875 62.125H2.8125C2.2955 62.125 1.875 61.7045 1.875 61.1875C1.875 60.6705 2.2955 60.25 2.8125 60.25H61.1875C61.7045 60.25 62.125 60.6705 62.125 61.1875C62.125 61.7045 61.7045 62.125 61.1875 62.125Z" fill="#008253"/>
</svg>
