<svg width="56" height="64" viewBox="0 0 56 64" fill="none" xmlns="http://www.w3.org/2000/svg">
<path d="M55.6964 57.6039L53.2886 41.0778C53.2139 40.5654 52.7374 40.2113 52.2257 40.2853C51.7134 40.36 51.3585 40.8358 51.4331 41.3481L53.1353 53.0309C50.8278 53.6704 49.102 55.6123 48.7375 57.9835H45.238L43.578 46.363C43.512 45.9011 43.1165 45.5581 42.6499 45.5581L36.9972 45.5583C36.403 42.0576 32.5325 39.346 27.8582 39.346C23.1838 39.346 19.3132 42.0576 18.7191 45.5584L13.0665 45.5585C12.6 45.5585 12.2044 45.9016 12.1384 46.3634L10.4784 57.9835H6.979C6.6145 55.6124 4.88875 53.6705 2.58138 53.0309L6.26288 27.7605H20.7922C21.3215 30.6886 24.2885 32.9375 27.8582 32.9375C31.428 32.9375 34.395 30.6886 34.9241 27.7605H49.4536L50.888 37.606C50.9627 38.1185 51.4399 38.4727 51.9509 38.3986C52.4632 38.3239 52.8181 37.8481 52.7435 37.3358L47.5509 1.69387C47.413 0.72825 46.5732 0 45.5977 0H10.1187C9.14325 0 8.30363 0.72825 8.166 1.69138L0.02 57.6065C0.00849998 57.6872 0.00337492 57.768 0.00187492 57.8485C0.00137492 57.8609 0 57.873 0 57.8855V60.9917C0 62.6505 1.3495 64 3.00825 64H7.14988C7.66763 64 8.08738 63.5802 8.08738 63.0625C8.08738 62.5448 7.66763 62.125 7.14988 62.125H3.00825C2.38325 62.125 1.87488 61.6166 1.87488 60.9917V59.8531C1.90763 59.8548 1.94 59.8584 1.973 59.8584H40.2306C40.2337 59.8584 40.2369 59.8587 40.24 59.8587C40.242 59.8587 40.244 59.8584 40.246 59.8584H44.421C44.4219 59.8584 44.4228 59.8585 44.4236 59.8585C44.4243 59.8585 44.4247 59.8584 44.4254 59.8584H53.7436C53.7765 59.8584 53.8089 59.8548 53.8415 59.8531V60.9917C53.8415 61.6166 53.3331 62.125 52.7082 62.125H10.8999C10.3821 62.125 9.96238 62.5448 9.96238 63.0625C9.96238 63.5802 10.3821 64 10.8999 64H52.7082C54.3671 64 55.7165 62.6505 55.7165 60.9917V57.8855C55.7165 57.8729 55.7151 57.8606 55.7146 57.8481C55.7131 57.7669 55.7081 57.6854 55.6964 57.6039ZM27.8582 41.2209C31.4631 41.2209 34.4676 43.0955 35.0856 45.5581L20.631 45.5584C21.2488 43.0956 24.2534 41.2209 27.8582 41.2209ZM13.8797 47.4334L41.8369 47.433L43.344 57.9834H41.0544L39.986 50.5046C39.92 50.0427 39.5245 49.6997 39.0579 49.6997L16.6588 49.7C16.1923 49.7 15.7966 50.0431 15.7306 50.505L14.6623 57.9834H12.3726L13.8797 47.4334ZM39.1602 57.9834H16.5562L17.4718 51.575L38.2448 51.5746L39.1602 57.9834ZM27.8582 31.0625C25.3505 31.0625 23.2474 29.6484 22.7148 27.7605H33.0016C32.4692 29.6484 30.3661 31.0625 27.8582 31.0625ZM22.7149 25.8855C23.2474 23.9976 25.3506 22.5834 27.8584 22.5834C30.3661 22.5834 32.4692 23.9976 33.0019 25.8855H22.7149ZM34.9243 25.8855C34.3951 22.9573 31.4281 20.7084 27.8584 20.7084C24.2886 20.7084 21.3216 22.9574 20.7925 25.8855H6.53612L9.4315 6.01137C11.8175 5.91337 13.783 4.16213 14.2118 1.875H18.494L17.4635 9.08825C17.4251 9.35725 17.5054 9.62975 17.6834 9.83512C17.8615 10.0405 18.1199 10.1584 18.3918 10.1584L21.8499 10.1582C22.381 12.5125 24.8724 14.3001 27.8584 14.3001C30.8445 14.3001 33.336 12.5122 33.867 10.1579L37.325 10.1578C37.5969 10.1578 37.8551 10.0399 38.0332 9.8345C38.2114 9.62913 38.2915 9.35675 38.2531 9.08762L37.2226 1.875H41.5049C41.9336 4.16213 43.8991 5.91337 46.2851 6.01137L49.1806 25.8855H34.9243ZM22.6777 1.875L22.239 4.94637C22.2006 5.21537 22.2809 5.48787 22.4589 5.69325C22.637 5.89863 22.8954 6.0165 23.1671 6.0165L32.5496 6.01613C32.8215 6.01613 33.0798 5.89812 33.2579 5.69287C33.436 5.4875 33.5161 5.21513 33.4777 4.946L33.0389 1.875H35.3285L36.2439 8.28263L19.4725 8.28325L20.388 1.875H22.6777ZM31.1447 1.875L31.4686 4.14113L24.248 4.14138L24.5717 1.875H31.1447ZM31.9126 10.1578C31.3811 11.4689 29.7649 12.425 27.8582 12.425C25.9519 12.425 24.3358 11.469 23.8041 10.1581L31.9126 10.1578ZM45.6951 1.96162L46.0074 4.1045C44.7845 3.91662 43.7875 3.03475 43.432 1.875H45.5979C45.6462 1.875 45.6879 1.91112 45.6951 1.96162ZM10.1187 1.875H12.2846C11.9291 3.03475 10.9321 3.91662 9.70925 4.1045L10.0217 1.95913C10.0287 1.91113 10.0704 1.875 10.1187 1.875ZM1.89913 57.9496C1.87963 57.9272 1.872 57.901 1.87575 57.8741L2.308 54.9075C3.6995 55.38 4.749 56.5487 5.072 57.9832H1.97312C1.94337 57.9834 1.9185 57.972 1.89913 57.9496ZM53.8176 57.9496C53.7982 57.972 53.7734 57.9834 53.7436 57.9834H50.6445C50.9676 56.5488 52.0171 55.3801 53.4087 54.9075L53.8406 57.8716C53.8449 57.9009 53.837 57.9272 53.8176 57.9496Z" fill="#008253"/>
</svg>
