<svg width="65" height="64" viewBox="0 0 65 64" xmlns="http://www.w3.org/2000/svg">
    <path d="M64.4375 60.5625L46.75 42.75C50.7917 37.9167 52.8125 32.3542 52.8125 26.0625C52.8125 22.5208 52.125 19.1458 50.75 15.9375C49.375 12.7292 47.5312 9.95833 45.2188 7.625C42.9062 5.29167 40.1458 3.4375 36.9375 2.0625C33.7292 0.6875 30.3542 0 26.8125 0C22.1042 0 17.75 1.15625 13.75 3.46875C9.75 5.78125 6.59375 8.9375 4.28125 12.9375C1.96875 16.9375 0.8125 21.3021 0.8125 26.0312C0.8125 30.7604 1.96875 35.125 4.28125 39.125C6.59375 43.125 9.75 46.2812 13.75 48.5938C17.75 50.9062 22.1042 52.0625 26.8125 52.0625C33.3125 52.0625 39.0208 49.9167 43.9375 45.625L61.5625 63.375C61.7292 63.5417 61.9062 63.6771 62.0938 63.7812C62.2812 63.8854 62.4792 63.9479 62.6875 63.9688C62.8958 63.9896 63.1042 63.9896 63.3125 63.9688C63.5208 63.9479 63.7188 63.8854 63.9062 63.7812C64.0938 63.6771 64.2708 63.5417 64.4375 63.375C64.8125 63 65 62.5312 65 61.9688C65 61.4062 64.8125 60.9375 64.4375 60.5625ZM26.8125 48C22.8125 48 19.125 47.0104 15.75 45.0312C12.375 43.0521 9.70833 40.375 7.75 37C5.79167 33.625 4.8125 29.9583 4.8125 26C4.8125 22.0417 5.79167 18.375 7.75 15C9.70833 11.625 12.375 8.94792 15.75 6.96875C19.125 4.98958 22.8021 4 26.7812 4C30.7604 4 34.4375 4.98958 37.8125 6.96875C41.1875 8.94792 43.8646 11.625 45.8438 15C47.8229 18.375 48.8125 22.0417 48.8125 26C48.8125 31.875 46.7708 36.9375 42.6875 41.1875C38.6458 45.3958 33.7292 47.6667 27.9375 48H26.8125ZM36.8125 24H28.8125V16C28.8125 15.4583 28.6146 14.9896 28.2188 14.5938C27.8229 14.1979 27.3438 14 26.7812 14C26.2188 14 25.75 14.1979 25.375 14.5938C25 14.9896 24.8125 15.4583 24.8125 16V24H16.8125C16.2292 24 15.75 24.1979 15.375 24.5938C15 24.9896 14.8125 25.4583 14.8125 26C14.8125 26.5417 15 27.0104 15.375 27.4062C15.75 27.8021 16.2292 28 16.8125 28H24.8125V36C24.8125 36.5417 25 37.0104 25.375 37.4062C25.75 37.8021 26.2188 38 26.7812 38C27.3438 38 27.8229 37.8021 28.2188 37.4062C28.6146 37.0104 28.8125 36.5417 28.8125 36V28H36.8125C37.3542 28 37.8229 27.8021 38.2188 27.4062C38.6146 27.0104 38.8125 26.5417 38.8125 26C38.8125 25.4583 38.6146 24.9896 38.2188 24.5938C37.8229 24.1979 37.3542 24 36.8125 24Z"/>
</svg>
